<?xml version="1.0" encoding="UTF-8" standalone="no"?>
<!-- Created with Inkscape (http://www.inkscape.org/) -->

<svg
   version="1.1"
   id="svg8070"
   width="880"
   height="880"
   viewBox="0 0 880 880"
   sodipodi:docname="summertime-beach-publicdomainvectors.org.svg"
   inkscape:version="1.2 (dc2aedaf03, 2022-05-15)"
   xmlns:inkscape="http://www.inkscape.org/namespaces/inkscape"
   xmlns:sodipodi="http://sodipodi.sourceforge.net/DTD/sodipodi-0.dtd"
   xmlns="http://www.w3.org/2000/svg"
   xmlns:svg="http://www.w3.org/2000/svg">
  <defs
     id="defs8074">
    <clipPath
       clipPathUnits="userSpaceOnUse"
       id="clipPath8088">
      <path
         d="M 0,660 H 660 V 0 H 0 Z"
         id="path8086" />
    </clipPath>
  </defs>
  <sodipodi:namedview
     id="namedview8072"
     pagecolor="#ffffff"
     bordercolor="#000000"
     borderopacity="0.25"
     inkscape:showpageshadow="2"
     inkscape:pageopacity="0.0"
     inkscape:pagecheckerboard="0"
     inkscape:deskcolor="#d1d1d1"
     showgrid="false"
     inkscape:zoom="0.95113636"
     inkscape:cx="441.05137"
     inkscape:cy="440.52569"
     inkscape:window-width="1920"
     inkscape:window-height="1017"
     inkscape:window-x="-8"
     inkscape:window-y="-8"
     inkscape:window-maximized="1"
     inkscape:current-layer="g8078">
    <inkscape:page
       x="0"
       y="0"
       id="page8076"
       width="880"
       height="880" />
  </sodipodi:namedview>
  <g
     id="g8078"
     inkscape:groupmode="layer"
     inkscape:label="Page 1"
     transform="matrix(1.3333333,0,0,-1.3333333,0,880)">
    <path
       d="M 0.768,0.768 H 660 V 660 H 0.768 Z"
       style="fill:#addff0;fill-opacity:1;fill-rule:nonzero;stroke:none"
       id="path8080" />
    <g
       id="g8082">
      <g
         id="g8084"
         clip-path="url(#clipPath8088)">
        <g
           id="g8090"
           transform="translate(660,536.2554)">
          <path
             d="m 0,0 v -38.371 c -17.168,5.808 -35.173,7.803 -52.375,2.429 -13.74,-4.293 -17.046,-6.013 -31.941,-4.659 -26.207,2.282 -60.382,-8.825 -83.916,-19.442 -41.233,-18.601 -67.193,-19.339 -111.865,-17.226 -30.803,1.457 -3.835,14.274 9.835,17.926 15.591,4.165 76.979,13.97 20.104,25.475 -61,12.34 -137.552,-2.375 -195.722,-21.667 -50.276,-16.671 -67.757,-9.414 -116.024,8.328 -4.366,1.606 -8.718,3.242 -13.072,4.878 -24.36,9.227 -41.482,15.853 -67.912,12.052 -5.55,-0.797 -10.988,-1.493 -16.344,-2.088 v 66.777 c 23.196,-0.344 38.267,-0.303 67.787,-8.33 18.909,-5.142 51.99,-17.47 68.499,-3.566 18.742,15.787 17.471,18.396 44.926,18.951 30.737,0.602 152.139,2.03 172.573,-11.509 -0.923,-6.959 -41.856,-9.28 -48.421,-10.135 -30.014,-3.909 -118.766,-19.832 -23.661,-17.499 50.638,1.242 137.973,2.271 176.58,-35.098 8.523,-8.248 18.773,5.9 27.278,12.031 27.033,19.493 61.341,22.426 93.41,27.172 6.911,1.022 13.8,1.949 20.73,2.833 C -39.269,11.788 -18.915,7.255 0,0"
             style="fill:#9cd5e8;fill-opacity:1;fill-rule:evenodd;stroke:none"
             id="path8092" />
        </g>
        <g
           id="g8094"
           transform="translate(660,616.8643)">
          <path
             d="m 0,0 c -6.389,-1.569 -12.116,-3.032 -16.017,-4.316 -23.76,-7.819 -26.052,-13.08 -32.292,-34.328 l -1.48,-4.011 c -13.648,-26.823 -53.051,-41.997 -81.34,-46.154 -41.542,-6.106 3.426,5.747 4.051,9.007 -14.082,-0.781 -26.94,-2.867 -41.345,-2.675 -30.274,0.409 -31.269,18.199 -45.488,14.614 -12.919,-3.257 3.738,0.24 9.836,-4.523 10.677,-8.338 -0.252,-5.777 1.434,-11.527 9.897,-33.738 101.809,-9.51 124.915,-3.174 21.064,5.776 43.478,6.496 62.85,17.41 5.891,3.319 10.577,6.099 14.876,8.569 v 29.886 c -13.275,-1.998 -27.169,-3.446 -29.065,-0.809 -5.827,8.106 16.691,14.457 29.065,17.316 z M 0,37.097 V 13.454 C -16.185,12.892 -31.988,11.735 -36.991,10.442 -56.28,4.88 -77.751,-5.893 -97.899,-13.001 c -57.819,-20.399 -50.033,-10.146 -105.724,-9.431 -24.863,0.319 -45.778,3.797 -70.162,7.406 -22.487,3.176 -119.991,4.357 -134.316,-4.808 -13.768,-11.756 101.068,-14.386 23.167,-33.121 -16.13,-3.879 -94.286,-15.587 -104.34,-9.907 -19.289,10.896 6.125,41.213 17.587,49.288 9.728,6.856 25.988,11.103 31.007,15.127 -11.694,7.849 -49.086,1.513 -62.444,-2.714 -36.035,-11.405 -67.934,-33.538 -100.917,-51.61 -23.802,-12.89 -38.283,-16.558 -55.191,-17.22 v 54.59 c 4.612,0.058 8.535,0.096 11.589,0.121 28.952,0.229 70.43,24.854 98.861,35.994 72.367,27.842 100.217,19.101 173.847,8.974 40.964,-5.567 81.695,-8.477 121.647,-19.086 99.114,-24.157 118.452,-9.775 211.707,17.745 11.477,3.351 25.835,6.346 41.581,8.75"
             style="fill:#bee9f7;fill-opacity:1;fill-rule:evenodd;stroke:none"
             id="path8096" />
        </g>
        <g
           id="g8098"
           transform="translate(114.2725,360.2295)">
          <path
             d="m 0,0 c 51.105,0 92.79,41.684 92.79,92.79 0,51.108 -41.685,92.791 -92.79,92.791 -51.107,0 -92.792,-41.683 -92.792,-92.791 C -92.792,41.684 -51.107,0 0,0"
             style="fill:#ffcc00;fill-opacity:1;fill-rule:evenodd;stroke:none"
             id="path8100" />
        </g>
        <g
           id="g8102"
           transform="translate(0.7676,314.4551)">
          <path
             d="m 0,0 v 130.483 c 2.954,0.406 5.969,0.62 9.036,0.62 36.374,0 65.861,-29.488 65.861,-65.861 0,-0.284 -0.008,-0.568 -0.011,-0.852 7.006,2.031 14.411,3.123 22.073,3.123 43.719,0 79.163,-35.443 79.163,-79.162 0,-43.72 -35.444,-79.162 -79.163,-79.162 -43.722,0 -79.164,35.442 -79.164,79.162 0,3.986 0.299,7.904 0.868,11.733 C 15.52,-0.377 12.306,-0.62 9.036,-0.62 5.969,-0.62 2.954,-0.404 0,0"
             style="fill:#dcf2fa;fill-opacity:1;fill-rule:evenodd;stroke:none"
             id="path8104" />
        </g>
        <g
           id="g8106"
           transform="translate(0.7676,321.1104)">
          <path
             d="m 0,0 v 100.091 c 5.798,2.159 12.072,3.34 18.623,3.34 29.484,0 53.385,-23.902 53.385,-53.387 0,-0.23 -0.006,-0.459 -0.008,-0.689 5.678,1.646 11.681,2.531 17.892,2.531 35.439,0 64.167,-28.729 64.167,-64.168 0,-35.44 -28.728,-64.169 -64.167,-64.169 -35.44,0 -64.169,28.729 -64.169,64.169 0,3.232 0.242,6.406 0.703,9.511 C 23.879,-3.146 21.273,-3.342 18.623,-3.342 12.072,-3.342 5.798,-2.159 0,0"
             style="fill:#ffffff;fill-opacity:1;fill-rule:evenodd;stroke:none"
             id="path8108" />
        </g>
        <g
           id="g8110"
           transform="translate(509.875,431.2954)">
          <path
             d="m 0,0 c 22.94,0 43.441,-10.443 57.007,-26.832 5.325,3.989 11.529,6.868 18.269,8.296 -12.895,36.148 13.807,74.988 52.877,74.988 7.797,0 15.223,-1.591 21.972,-4.465 V -147.944 H 0 c -40.855,0 -73.972,33.119 -73.972,73.972 C -73.972,-33.119 -40.855,0 0,0"
             style="fill:#dcf2fa;fill-opacity:1;fill-rule:evenodd;stroke:none"
             id="path8112" />
        </g>
        <g
           id="g8114"
           transform="translate(569.4424,396.0278)">
          <path
             d="m 0,0 c 4.689,3.99 16.319,9.139 22.255,10.567 -19.34,61.548 34.712,94.511 68.303,74.29 V -112.676 H -47.62 c -35.983,0 -65.156,33.119 -65.156,73.972 C -112.776,30.982 -38.434,52.709 0,0"
             style="fill:#ffffff;fill-opacity:1;fill-rule:evenodd;stroke:none"
             id="path8116" />
        </g>
        <g
           id="g8118"
           transform="translate(168.7212,299.9023)">
          <path
             d="m 0,0 c -24.727,0 -44.771,17.023 -44.771,38.024 0,20.634 19.349,37.427 43.479,38.007 l -0.005,0.293 c 0,24.5 23.387,44.361 52.234,44.361 10.825,0 20.879,-2.794 29.218,-7.582 2.338,14.191 13.516,25.975 28.654,31.212 -4.444,7.859 -6.934,16.666 -6.934,25.968 0,33.174 31.667,60.068 70.726,60.068 39.063,0 70.728,-26.894 70.728,-60.068 0,-8.822 -2.239,-17.2 -6.263,-24.746 15.075,-3.864 26.055,-15.748 26.055,-29.811 0,-2.076 -0.242,-4.102 -0.698,-6.065 32.484,-0.126 58.771,-22.528 58.771,-50.145 0,-0.558 -0.015,-1.113 -0.036,-1.667 0.336,0.008 0.672,0.013 1.01,0.013 18.813,0 34.066,-12.953 34.066,-28.93 C 356.234,12.951 340.981,0 322.168,0 Z"
             style="fill:#dcf2fa;fill-opacity:1;fill-rule:evenodd;stroke:none"
             id="path8120" />
        </g>
        <g
           id="g8122"
           transform="translate(191.9053,299.9023)">
          <path
             d="m 0,0 c -49.477,0 -56.957,67.497 -7.589,68.895 -0.446,35.524 39.963,56.877 69.323,37.07 1.99,14.191 17.992,33.113 30.876,38.35 -18.921,39.316 9.624,86.036 54.297,86.036 44.063,0 72.669,-45.59 54.867,-84.814 15.424,-4.645 26.464,-25.899 23.368,-41.554 28.351,-0.129 50.897,-23.563 49.991,-51.812 16.342,0.477 28.069,-6.918 28.069,-23.239 C 303.202,12.951 290.22,0 274.208,0 Z"
             style="fill:#ffffff;fill-opacity:1;fill-rule:evenodd;stroke:none"
             id="path8124" />
        </g>
        <path
           d="M 0.768,0.768 H 660 V 330.384 H 0.768 Z"
           style="fill:#2da3ca;fill-opacity:1;fill-rule:evenodd;stroke:none"
           id="path8126" />
        <g
           id="g8128"
           transform="translate(0.7676,175.2607)">
          <path
             d="m 0,0 v -28.593 c 0.757,0.024 1.46,0.06 2.094,0.108 36.508,2.839 31.584,-2.943 63.674,-9.299 16.944,-3.176 28.461,-3.428 45.649,-1.55 28.101,3.069 54.053,-1.782 83.016,-1.961 18.302,-0.119 36.744,-0.481 55.025,-0.386 11.381,0.017 22.538,-0.176 33.908,-0.47 46.754,-1.112 93.421,0.346 140.131,0.114 49.938,-0.43 101.222,2.963 151.301,4.912 31.492,1.213 54.494,6.226 84.434,8.865 V -1.069 C 649.197,0.876 638.741,1.715 627.218,0.589 602.006,-1.842 580.197,-3.843 555.121,0.752 544.367,2.771 534.195,5.037 523.572,7.314 484.897,14.427 474.804,-0.939 436.678,5.547 422.137,7.986 408.674,8.673 393.757,8.115 372.031,7.304 361.176,6.858 339.22,8.03 323.302,8.882 308.791,11.604 294.334,12.15 250.047,13.814 255.62,12.956 215.31,3.844 166.718,-6.268 165.94,20.466 116.211,1.015 80.411,-13.655 84.446,-2.955 51.878,6.519 29.673,12.266 15.317,6.132 0,0"
             style="fill:#99daf0;fill-opacity:1;fill-rule:evenodd;stroke:none"
             id="path8130" />
        </g>
        <g
           id="g8132"
           transform="translate(0.7676,244.2168)">
          <path
             d="m 0,0 v -26.712 c 36.743,-4.098 19.543,1.466 45.722,15.219 32.072,15.456 97.813,-40.365 148.406,-41.144 57.229,-0.882 90.188,11.402 140.958,35.618 81.18,38.856 43.657,-17.9 119.719,-3.225 10.726,2.089 21.369,4.379 32.072,6.556 58.36,11.874 73.621,-2.594 125.836,-3.078 17.166,-0.158 32.044,1.157 46.519,2.895 V 0.269 C 647.11,-1.05 634.709,-2.024 621.654,-1.876 578.383,-1.389 545.146,11.863 501.875,8.083 496.133,7.473 490.417,6.835 484.682,6.142 444.764,1.315 434.627,-3.945 397.517,12.753 344.16,36.76 300.287,-17.74 238.377,-4.075 c -36.095,7.97 10.53,11.643 19.207,12.297 30.915,2.328 10.464,2.332 -4.643,4.69 -20.175,3.499 -40.21,8.131 -60.57,11.55 -93.576,15.714 -63.634,-12.366 -0.935,-30.355 l 7.025,-1.788 c 51.774,-13.172 78.706,-5.049 127.058,13.113 80.194,30.122 62.898,-11.675 124.432,-6.57 34.605,2.87 59.348,9.217 95.331,4.428 2.859,-0.587 5.675,-1.204 8.521,-1.854 3.506,-0.799 49.627,-9.615 22.148,-7.262 -34.074,2.921 -40.936,7.262 -76.875,0.671 -15.957,-3.106 -33.88,-7.033 -49.817,-9.196 -60.537,-8.209 -44.345,32.521 -98.496,11.027 -39.451,-15.659 -65.23,-34.933 -110.506,-39.32 -13.666,-1.27 -27.915,-2.351 -41.631,-2.568 C 151.023,-45.969 111.283,-9.61 69.125,-2.053 45.353,2.209 42.362,-7.375 27.868,-9.021 22.313,-9.008 20.247,-8.47 15.003,-6.425 9.378,-4.228 4.543,-2.078 0,0"
             style="fill:#39b5de;fill-opacity:1;fill-rule:evenodd;stroke:none"
             id="path8134" />
        </g>
        <g
           id="g8136"
           transform="translate(0.7676,310.125)">
          <path
             d="m 0,0 v -42.481 c 40.601,-5.854 70.724,-0.069 111.391,-6.205 54.015,-8.151 52.48,-6.163 105.475,1.487 25.413,3.884 41.113,5.834 67.655,5.888 38.605,1.363 60.541,12.137 100.69,7.287 35.64,-4.306 66.514,-3.262 101.592,-7.162 32.355,-3.754 21.136,-9.708 56.949,-4.597 51.402,7.333 83.206,10.008 115.48,9.788 v 14.322 c -11.951,0.537 -23.944,0.814 -36.262,0.807 -36.939,-0.022 -76.645,-4.172 -112.508,-1.644 -4.418,0.305 -8.827,0.603 -13.247,0.873 -55.813,3.42 -68.613,-14.168 -123.647,8.458 -16.243,6.679 -10.687,5.818 3.351,1.392 33.947,-10.704 46.85,-7.433 80.697,-1.954 21.232,3.436 24.043,2.733 45.15,3.308 -17.034,3.329 -26.077,1.826 -42.674,-0.774 -28.769,-4.508 -26.39,-1.852 -52.608,-0.717 -28.88,1.253 -21.804,3.305 -47.117,9.456 -24.213,5.882 -60.304,-1.452 -82.563,-8.768 -22.123,-7.693 -23.365,-10.482 -49.525,-14.955 -14.885,-2.27 -29.333,-3.999 -44.513,-5.151 -39.679,-3.007 -66.268,4.268 -105.155,7.468 -0.566,0.048 -47.034,2.086 -34.652,6.452 22.078,7.785 71.066,5.884 97.183,5.928 29.873,0.049 136.924,8.048 35.77,11.474 C 141.601,1.178 101.157,2.298 66.137,1.477 43.489,0.944 21.691,0.383 0,0"
             style="fill:#39b5de;fill-opacity:1;fill-rule:evenodd;stroke:none"
             id="path8138" />
        </g>
        <path
           d="M 0.768,0.768 H 660 V 152.605 H 0.768 Z"
           style="fill:#fac37b;fill-opacity:1;fill-rule:evenodd;stroke:none"
           id="path8140" />
        <g
           id="g8142"
           transform="translate(0.7676,90.8818)">
          <path
             d="m 0,0 v -46.57 c 23.592,-5.201 57.104,-15.862 60.527,-32.81 0.803,-3.977 -0.425,-7.46 -3.005,-10.734 h 350.296 c 67.843,25.613 160.577,37.358 230.748,25.784 5.634,-1 12.754,-2.33 20.666,-3.576 V 6.039 c -8.577,1.772 -16.897,3.404 -25.6,4.807 C 582.564,19.075 553.65,20.161 504.339,6.545 468.209,-3.227 452.553,-5.078 415.22,-7.748 349.912,-12.416 320.75,-26.009 254.044,-12.657 232.712,-8.611 218.962,-7.22 197.373,-6.162 120.212,-2.381 91.194,19.729 5.469,1.153 3.643,0.758 1.819,0.373 0,0"
             style="fill:#edaf5f;fill-opacity:1;fill-rule:evenodd;stroke:none"
             id="path8144" />
        </g>
        <g
           id="g8146"
           transform="translate(0.7676,71.3018)">
          <path
             d="m 0,0 v -9.339 c 5.015,-1.402 12.762,-2.004 19.335,-2.483 69.256,-5.062 67.956,-28.694 117.667,-54.473 3.122,-1.597 6.45,-3.001 9.943,-4.239 h 127.651 c 2.142,0.416 4.227,0.838 6.245,1.263 23.924,5.65 40.129,7.301 64.217,10.25 20.093,2.696 34.01,5.832 53.329,11.051 66.513,17.961 125.063,27.447 194.494,28.459 28.344,0.414 47.975,-1.965 66.351,-5.851 V -0.541 C 644.874,3.295 630.827,6.194 618.16,7.838 554.02,16.153 485.822,8.417 423.955,-7.973 375.672,-20.762 361.575,-19.948 312.891,-23.161 285.66,-25.117 271.916,-29.481 246.818,-33.449 201.424,-36.76 197.861,-19.302 164.323,-4.001 153.939,0.238 146.324,2.095 135.092,3.784 100.217,9.027 40.409,18.741 8.359,4.302 4.819,2.707 2.072,1.279 0,0"
             style="fill:#e3a34f;fill-opacity:1;fill-rule:evenodd;stroke:none"
             id="path8148" />
        </g>
        <g
           id="g8150"
           transform="translate(243.3652,382.0332)">
          <path
             d="m 0,0 c -2.002,14.308 19.682,26.396 37.31,13.802 4.652,22.302 36.715,25.538 44.123,7.954 23.016,18.024 47.741,2.23 41.203,-17.779 C 143.26,28.512 111.697,51.693 83.38,28.774 81.68,54.785 28.574,53.221 34.392,21.99 13.235,36.229 -10.375,16.955 0,0"
             style="fill:#dcf2fa;fill-opacity:1;fill-rule:evenodd;stroke:none"
             id="path8152" />
        </g>
        <g
           id="g8154"
           transform="translate(338.2461,355.0537)">
          <path
             d="M 0,0 C 4.428,16.728 28.351,18.978 37.961,0 55.457,17.442 72.351,3.677 72.999,-14.924 85.893,12.79 54.375,27.44 40.556,9.733 28.79,38.511 -2.336,23.931 0,0"
             style="fill:#dcf2fa;fill-opacity:1;fill-rule:evenodd;stroke:none"
             id="path8156" />
        </g>
        <g
           id="g8158"
           transform="translate(197.7285,338.145)">
          <path
             d="M 0,0 C 0.482,17.324 22.415,28.339 36.951,10.73 49.988,32.435 69.585,23.983 74.477,6.294 80.681,36.567 46.646,41.734 37.249,20.815 19.208,45.141 -7.754,22.333 0,0"
             style="fill:#dcf2fa;fill-opacity:1;fill-rule:evenodd;stroke:none"
             id="path8160" />
        </g>
        <g
           id="g8162"
           transform="translate(635.0967,368.6797)">
          <path
             d="M 0,0 C -4.427,16.728 -28.348,18.979 -37.959,0 -55.456,17.444 -72.35,3.677 -72.998,-14.924 -85.892,12.79 -54.375,27.441 -40.555,9.733 -28.789,38.512 2.336,23.931 0,0"
             style="fill:#dcf2fa;fill-opacity:1;fill-rule:evenodd;stroke:none"
             id="path8164" />
        </g>
        <g
           id="g8166"
           transform="translate(7.1558,361.9639)">
          <path
             d="M 0,0 C 5.446,16.452 29.623,20.687 38.474,-0.361 57.209,16.671 73.544,2.936 73.136,-15.411 87.792,11.793 56.685,26.539 41.664,9.211 31.388,37.7 -0.998,23.62 0,0"
             style="fill:#dcf2fa;fill-opacity:1;fill-rule:evenodd;stroke:none"
             id="path8168" />
        </g>
        <path
           d="M 0.768,320.322 H 660 v 10.061 H 0.768 Z"
           style="fill:#2290b5;fill-opacity:1;fill-rule:evenodd;stroke:none"
           id="path8170" />
        <g
           id="g8172"
           transform="translate(660,161.0332)">
          <path
             d="m 0,0 v -13.064 c -20.846,2.439 -42.854,-4.661 -65.071,-8.676 -47.652,-8.613 -76.266,-1.429 -120.769,-3.196 -39.902,-1.584 -79.67,-2.144 -119.324,-3.841 l -5.648,-0.17 c -33.306,-1.004 -56.418,5.324 -87.286,6.618 -13.273,0.537 -26.508,0.989 -39.79,1.211 -21.338,0.227 -41.851,-0.494 -63.141,-1.502 -11.879,-0.692 -23.314,-2.171 -34.985,-2.908 -44.539,-2.814 -83.615,11.392 -123.218,11.163 V 2.83 c 14.115,-0.505 28.802,-2.101 49.731,-4.962 51.105,-6.981 82.106,-1.729 131.703,-1.643 33.725,0.213 77.55,4.793 109.159,2.532 27.417,-1.869 53.491,-2.788 80.977,-1.716 31.847,1.236 54.44,0.166 85.948,-1.093 34.214,-0.45 68.649,-5.609 101.814,-5.16 C -59.407,-8.663 -31.897,5.058 0,0"
             style="fill:#fce8cf;fill-opacity:1;fill-rule:evenodd;stroke:none"
             id="path8174" />
        </g>
      </g>
    </g>
  </g>
</svg>
